<svg width="31" height="38" viewBox="0 0 31 38" version="1.1" xmlns="http://www.w3.org/2000/svg" xmlns:xlink="http://www.w3.org/1999/xlink" class="icon icon-cart">
    <title>Cart</title>
    <g id="Cart" stroke="none" stroke-width="1" fill="none" fill-rule="evenodd">
        <g id="Group-5-Copy" transform="translate(5.500000, 1.000000)" stroke="#010202" fill="none">
            <path d="M17.2826526,5.27826247 L19.503498,22.1326 L1.15292961,22.1326 L2.7804219,5.79593469 L17.2826526,5.27826247 Z" id="Stroke-1" stroke-width="1.3px" stroke="#010202" fill="none"></path>
            <path d="M7.0028,8.5448 L7.0028,4.0638 C7.0028,2.0958 8.5978,0.4998 10.5668,0.4998 L10.5668,0.4998 C12.5348,0.4998 14.1298,2.0958 14.1298,4.0638 L14.1298,8.5448" id="Stroke-3" stroke-width="1.5px" stroke="#010202" fill="none"></path>
        </g>
        <path d="M8.716,37.12 C8.97733333,37.12 9.24533333,37.1013333 9.52,37.064 C9.79466667,37.0266667 10.0306667,36.968 10.228,36.888 C10.3133333,36.8613333 10.368,36.8373333 10.392,36.816 C10.416,36.7946667 10.4466667,36.7466667 10.484,36.672 C10.516,36.592 10.5493333,36.5 10.584,36.396 C10.6186667,36.292 10.6466667,36.1933333 10.668,36.1 C10.6893333,36.0066667 10.7,35.9386667 10.7,35.896 C10.7,35.8106667 10.664,35.768 10.592,35.768 C10.52,35.768 10.4653333,35.8026667 10.428,35.872 C10.252,36.1866667 10.0386667,36.432 9.788,36.608 C9.53733333,36.784 9.22,36.872 8.836,36.872 C8.50533333,36.872 8.20533333,36.796 7.936,36.644 C7.66666667,36.492 7.43466667,36.2893333 7.24,36.036 C7.04533333,35.7826667 6.896,35.4986667 6.792,35.184 C6.688,34.8693333 6.636,34.5493333 6.636,34.224 C6.636,33.9306667 6.68933333,33.648 6.796,33.376 C6.90266667,33.104 7.05066667,32.86 7.24,32.644 C7.42933333,32.428 7.656,32.2573333 7.92,32.132 C8.184,32.0066667 8.47066667,31.944 8.78,31.944 C8.99866667,31.944 9.20266667,31.9666667 9.392,32.012 C9.58133333,32.0573333 9.74266667,32.1253333 9.876,32.216 C10.0146667,32.312 10.1186667,32.4333333 10.188,32.58 C10.2573333,32.7266667 10.3186667,32.9013333 10.372,33.104 C10.388,33.1626667 10.4186667,33.1973333 10.464,33.208 C10.5093333,33.2186667 10.552,33.212 10.592,33.188 C10.632,33.164 10.6493333,33.1333333 10.644,33.096 C10.6386667,32.888 10.628,32.7133333 10.612,32.572 C10.596,32.4306667 10.5826667,32.2986667 10.572,32.176 C10.5666667,32.1013333 10.5466667,32.0426667 10.512,32 C10.4773333,31.9573333 10.42,31.9253333 10.34,31.904 C10.1586667,31.856 10,31.8173333 9.864,31.788 C9.728,31.7586667 9.588,31.736 9.444,31.72 C9.3,31.704 9.124,31.696 8.916,31.696 C8.50533333,31.696 8.11466667,31.764 7.744,31.9 C7.37333333,32.036 7.044,32.2266667 6.756,32.472 C6.468,32.7173333 6.24133333,33.0053333 6.076,33.336 C5.91066667,33.6666667 5.828,34.0266667 5.828,34.416 C5.828,34.8213333 5.90666667,35.1906667 6.064,35.524 C6.22133333,35.8573333 6.436,36.1426667 6.708,36.38 C6.98,36.6173333 7.28933333,36.8 7.636,36.928 C7.98266667,37.056 8.34266667,37.12 8.716,37.12 Z M16.384,37.04 C16.4533333,37.04 16.5093333,37.0346667 16.552,37.024 C16.5946667,37.0133333 16.616,36.992 16.616,36.96 C16.616,36.9226667 16.5946667,36.8866667 16.552,36.852 C16.5093333,36.8173333 16.4426667,36.792 16.352,36.776 C16.2453333,36.7546667 16.1453333,36.7226667 16.052,36.68 C15.9586667,36.6373333 15.8693333,36.5626667 15.784,36.456 C15.6986667,36.3493333 15.6186667,36.1893333 15.544,35.976 C15.48,35.784 15.3933333,35.532 15.284,35.22 C15.1746667,34.908 15.0546667,34.556 14.924,34.164 C14.7933333,33.772 14.6586667,33.3653333 14.52,32.944 C14.3813333,32.5226667 14.248,32.1093333 14.12,31.704 C14.1093333,31.672 14.1,31.64 14.092,31.608 C14.084,31.576 14.0746667,31.5493333 14.064,31.528 C14.0586667,31.5173333 14.052,31.512 14.044,31.512 C14.036,31.512 14.0293333,31.5146667 14.024,31.52 C14.008,31.5413333 13.9906667,31.584 13.972,31.648 C13.9533333,31.712 13.92,31.76 13.872,31.792 C13.824,31.824 13.776,31.848 13.728,31.864 L13.728,31.864 L13.584,31.912 C13.5786667,31.9973333 13.5653333,32.0773333 13.544,32.152 C13.5226667,32.2266667 13.4986667,32.3013333 13.472,32.376 C13.3386667,32.744 13.212,33.084 13.092,33.396 C12.972,33.708 12.856,34.008 12.744,34.296 C12.632,34.584 12.5133333,34.8773333 12.388,35.176 C12.2626667,35.4746667 12.1253333,35.7946667 11.976,36.136 C11.8906667,36.3333333 11.7893333,36.4746667 11.672,36.56 C11.5546667,36.6453333 11.4266667,36.7093333 11.288,36.752 C11.2026667,36.7786667 11.1373333,36.8066667 11.092,36.836 C11.0466667,36.8653333 11.024,36.8986667 11.024,36.936 C11.024,36.968 11.0453333,36.9933333 11.088,37.012 C11.1306667,37.0306667 11.1866667,37.04 11.256,37.04 C11.3893333,37.04 11.5386667,37.032 11.704,37.016 C11.8693333,37 12.04,36.992 12.216,36.992 C12.3653333,36.992 12.5066667,36.9946667 12.64,37 C12.7733333,37.0053333 12.8746667,37.008 12.944,37.008 C13.0133333,37.008 13.0693333,37.0013333 13.112,36.988 C13.1546667,36.9746667 13.176,36.952 13.176,36.92 C13.176,36.8613333 13.088,36.808 12.912,36.76 C12.784,36.728 12.6746667,36.6733333 12.584,36.596 C12.4933333,36.5186667 12.448,36.4213333 12.448,36.304 C12.448,36.2773333 12.4613333,36.2133333 12.488,36.112 C12.5146667,36.0106667 12.5466667,35.896 12.584,35.768 C12.6213333,35.64 12.6586667,35.5186667 12.696,35.404 C12.7333333,35.2893333 12.76,35.2053333 12.776,35.152 C12.7973333,35.0933333 12.82,35.0546667 12.844,35.036 C12.868,35.0173333 12.8906667,35.008 12.912,35.008 L12.912,35.008 L14.424,35.008 C14.4986667,35.008 14.5506667,35.012 14.58,35.02 C14.6093333,35.028 14.6293333,35.0533333 14.64,35.096 C14.6826667,35.2293333 14.728,35.3826667 14.776,35.556 C14.824,35.7293333 14.8653333,35.892 14.9,36.044 C14.9346667,36.196 14.952,36.312 14.952,36.392 C14.952,36.4773333 14.9146667,36.552 14.84,36.616 C14.7653333,36.68 14.64,36.7253333 14.464,36.752 C14.3946667,36.7626667 14.3333333,36.7813333 14.28,36.808 C14.2266667,36.8346667 14.2,36.8666667 14.2,36.904 C14.2,36.936 14.2213333,36.96 14.264,36.976 C14.3066667,36.992 14.3626667,37 14.432,37 C14.496,37 14.5733333,36.9986667 14.664,36.996 C14.7546667,36.9933333 14.8533333,36.992 14.96,36.992 L14.96,36.992 L15.272,36.992 C15.3946667,36.992 15.528,36.996 15.672,37.004 C15.816,37.012 15.952,37.02 16.08,37.028 C16.208,37.036 16.3093333,37.04 16.384,37.04 Z M14.368,34.744 L13.0786667,34.7431111 C13.0484444,34.7419259 13.0235556,34.7395556 13.004,34.736 C12.9746667,34.7306667 12.96,34.7146667 12.96,34.688 C12.96,34.6773333 12.9653333,34.656 12.976,34.624 L12.976,34.624 L13.704,32.664 C13.736,32.5733333 13.7573333,32.528 13.768,32.528 C13.784,32.528 13.808,32.576 13.84,32.672 L13.84,32.672 L14.464,34.624 C14.4693333,34.64 14.4733333,34.6546667 14.476,34.668 C14.4786667,34.6813333 14.48,34.6933333 14.48,34.704 C14.48,34.7306667 14.4426667,34.744 14.368,34.744 L14.368,34.744 Z M21.572,37.168 C21.6413333,37.168 21.7266667,37.1613333 21.828,37.148 C21.9293333,37.1346667 22.02,37.108 22.1,37.068 C22.18,37.028 22.22,36.968 22.22,36.888 C22.22,36.8293333 22.18,36.8 22.1,36.8 C21.9133333,36.8 21.748,36.7866667 21.604,36.76 C21.46,36.7333333 21.3186667,36.6586667 21.18,36.536 C20.9293333,36.3066667 20.7133333,36.0853333 20.532,35.872 C20.3506667,35.6586667 20.184,35.44 20.032,35.216 C19.88,34.992 19.7213333,34.7546667 19.556,34.504 C19.54,34.4773333 19.5306667,34.4546667 19.528,34.436 C19.5253333,34.4173333 19.5346667,34.4053333 19.556,34.4 C19.7053333,34.3253333 19.852,34.2293333 19.996,34.112 C20.14,33.9946667 20.26,33.8493333 20.356,33.676 C20.452,33.5026667 20.5,33.296 20.5,33.056 C20.5,32.6186667 20.3466667,32.2906667 20.04,32.072 C19.7333333,31.8533333 19.2866667,31.744 18.7,31.744 C18.5453333,31.744 18.4186667,31.7466667 18.32,31.752 C18.2213333,31.7573333 18.132,31.764 18.052,31.772 C17.972,31.78 17.8813333,31.784 17.78,31.784 C17.6733333,31.784 17.588,31.7826667 17.524,31.78 C17.46,31.7773333 17.392,31.776 17.32,31.776 L17.32,31.776 L16.996,31.776 C16.9266667,31.776 16.8706667,31.7826667 16.828,31.796 C16.7853333,31.8093333 16.764,31.832 16.764,31.864 C16.764,31.9013333 16.7853333,31.9346667 16.828,31.964 C16.8706667,31.9933333 16.9373333,32.0133333 17.028,32.024 C17.1826667,32.04 17.2933333,32.0693333 17.36,32.112 C17.4266667,32.1546667 17.4693333,32.228 17.488,32.332 C17.5066667,32.436 17.516,32.5893333 17.516,32.792 L17.516,32.792 L17.516,36.2 C17.516,36.3973333 17.4693333,36.5386667 17.376,36.624 C17.2826667,36.7093333 17.1346667,36.7706667 16.932,36.808 C16.756,36.84 16.668,36.888 16.668,36.952 C16.668,36.984 16.6893333,37.0066667 16.732,37.02 C16.7746667,37.0333333 16.8306667,37.04 16.9,37.04 C17.044,37.04 17.168,37.0346667 17.272,37.024 C17.376,37.0133333 17.48,37.004 17.584,36.996 C17.688,36.988 17.8066667,36.984 17.94,36.984 C18.0413333,36.984 18.1226667,36.988 18.184,36.996 C18.2453333,37.004 18.3146667,37.0133333 18.392,37.024 C18.4693333,37.0346667 18.58,37.04 18.724,37.04 C18.7933333,37.04 18.8493333,37.0333333 18.892,37.02 C18.9346667,37.0066667 18.956,36.984 18.956,36.952 C18.956,36.9146667 18.9346667,36.8853333 18.892,36.864 C18.8493333,36.8426667 18.7826667,36.824 18.692,36.808 C18.4946667,36.7706667 18.356,36.6893333 18.276,36.564 C18.196,36.4386667 18.156,36.2906667 18.156,36.12 L18.156,36.12 L18.156,34.712 C18.156,34.664 18.1653333,34.624 18.184,34.592 C18.2026667,34.56 18.2333333,34.5466667 18.276,34.552 C18.3506667,34.5573333 18.4453333,34.572 18.56,34.596 C18.6746667,34.62 18.7906667,34.6613333 18.908,34.72 C19.0573333,34.7946667 19.172,34.8986667 19.252,35.032 C19.4386667,35.3306667 19.5973333,35.576 19.728,35.768 C19.8586667,35.96 19.9826667,36.1293333 20.1,36.276 L20.1,36.276 L20.468,36.736 C20.564,36.848 20.668,36.936 20.78,37 C20.892,37.064 21.0146667,37.108 21.148,37.132 C21.2813333,37.156 21.4226667,37.168 21.572,37.168 Z M18.58,34.368 C18.4466667,34.368 18.3426667,34.3546667 18.268,34.328 C18.1933333,34.3013333 18.156,34.2213333 18.156,34.088 C18.156,33.768 18.1573333,33.4946667 18.16,33.268 C18.1626667,33.0413333 18.1666667,32.8613333 18.172,32.728 C18.1826667,32.4506667 18.2146667,32.2573333 18.268,32.148 C18.3213333,32.0386667 18.4333333,31.984 18.604,31.984 C18.94,31.984 19.192,32.0386667 19.36,32.148 C19.528,32.2573333 19.64,32.4026667 19.696,32.584 C19.752,32.7653333 19.78,32.9653333 19.78,33.184 C19.78,33.3866667 19.7306667,33.5786667 19.632,33.76 C19.5333333,33.9413333 19.3946667,34.088 19.216,34.2 C19.0373333,34.312 18.8253333,34.368 18.58,34.368 Z M24.952,37.04 C25.0213333,37.04 25.0773333,37.0333333 25.12,37.02 C25.1626667,37.0066667 25.184,36.984 25.184,36.952 C25.184,36.9146667 25.1626667,36.8853333 25.12,36.864 C25.0773333,36.8426667 25.0106667,36.824 24.92,36.808 C24.7226667,36.7706667 24.568,36.7053333 24.456,36.612 C24.344,36.5186667 24.288,36.376 24.288,36.184 L24.288,36.184 L24.28896,32.87392 C24.29152,32.6657067 24.2992,32.5104 24.312,32.408 C24.328,32.28 24.3653333,32.2 24.424,32.168 C24.4826667,32.136 24.5706667,32.12 24.688,32.12 L24.688,32.12 L25.496,32.12 C25.752,32.12 25.9333333,32.1533333 26.04,32.22 C26.1466667,32.2866667 26.2106667,32.376 26.232,32.488 C26.2533333,32.5893333 26.2746667,32.6693333 26.296,32.728 C26.3173333,32.7866667 26.3466667,32.816 26.384,32.816 C26.4266667,32.816 26.4586667,32.7853333 26.48,32.724 C26.5013333,32.6626667 26.512,32.608 26.512,32.56 L26.512,32.56 L26.5128889,32.4008889 C26.5140741,32.362963 26.5164444,32.3333333 26.52,32.312 C26.5253333,32.28 26.5346667,32.2426667 26.548,32.2 C26.5613333,32.1573333 26.576,32.088 26.592,31.992 C26.5973333,31.9653333 26.604,31.928 26.612,31.88 C26.62,31.832 26.624,31.7946667 26.624,31.768 C26.624,31.7253333 26.6186667,31.684 26.608,31.644 C26.5973333,31.604 26.584,31.584 26.568,31.584 C26.504,31.584 26.452,31.6026667 26.412,31.64 C26.372,31.6773333 26.32,31.712 26.256,31.744 C26.1706667,31.7813333 26.0693333,31.8106667 25.952,31.832 C25.8346667,31.8533333 25.6826667,31.864 25.496,31.864 L25.496,31.864 L22.68,31.864 C22.568,31.864 22.4546667,31.8506667 22.34,31.824 C22.2253333,31.7973333 22.152,31.7573333 22.12,31.704 C22.0986667,31.6613333 22.0653333,31.608 22.02,31.544 C21.9746667,31.48 21.9413333,31.448 21.92,31.448 C21.8986667,31.448 21.8733333,31.456 21.844,31.472 C21.8146667,31.488 21.7946667,31.5413333 21.784,31.632 C21.7626667,31.7973333 21.7346667,31.94 21.7,32.06 C21.6653333,32.18 21.6106667,32.3173333 21.536,32.472 C21.5093333,32.5253333 21.496,32.5786667 21.496,32.632 C21.496,32.6586667 21.5,32.6826667 21.508,32.704 C21.516,32.7253333 21.5306667,32.736 21.552,32.736 C21.5946667,32.736 21.6373333,32.7173333 21.68,32.68 C21.7226667,32.6426667 21.7626667,32.5986667 21.8,32.548 C21.8373333,32.4973333 21.864,32.4586667 21.88,32.432 C21.9386667,32.3253333 22.0306667,32.2466667 22.156,32.196 C22.2813333,32.1453333 22.408,32.12 22.536,32.12 L22.536,32.12 L22.912,32.12 C23.0506667,32.12 23.1613333,32.1213333 23.244,32.124 C23.3266667,32.1266667 23.4053333,32.136 23.48,32.152 C23.5226667,32.1573333 23.556,32.1866667 23.58,32.24 C23.604,32.2933333 23.6213333,32.3853333 23.632,32.516 C23.6426667,32.6466667 23.648,32.8346667 23.648,33.08 L23.648,33.08 L23.648,36.184 C23.648,36.376 23.5946667,36.5186667 23.488,36.612 C23.3813333,36.7053333 23.2266667,36.7706667 23.024,36.808 C22.9333333,36.824 22.8666667,36.8426667 22.824,36.864 C22.7813333,36.8853333 22.76,36.9146667 22.76,36.952 C22.76,36.984 22.7813333,37.0066667 22.824,37.02 C22.8666667,37.0333333 22.9226667,37.04 22.992,37.04 C23.136,37.04 23.26,37.036 23.364,37.028 C23.468,37.02 23.5693333,37.0133333 23.668,37.008 C23.7666667,37.0026667 23.8826667,37 24.016,37 L24.1324444,37.0008889 C24.2059259,37.0020741 24.2711111,37.0044444 24.328,37.008 C24.4133333,37.0133333 24.5026667,37.02 24.596,37.028 C24.6893333,37.036 24.808,37.04 24.952,37.04 Z" id="CART" fill="#333333" fill-rule="nonzero"></path>
    </g>
</svg>