<svg width="15" height="14" viewBox="0 0 15 14" version="1.1" xmlns="http://www.w3.org/2000/svg" xmlns:xlink="http://www.w3.org/1999/xlink" class="icon icon-close">
    <title>cross-white</title>
    <g id="Mobile---Section" stroke="none" stroke-width="1" fill="none" fill-rule="evenodd">
        <g id="Shop-Side-Menu" transform="translate(-28.000000, -11.000000)" fill="#FFFFFF">
            <g id="cross-white" transform="translate(28.000000, 11.000000)" fill="#FFFFFF">
                <path d="M14.4785714,0.1659 C14.2471429,-0.0553 13.8728571,-0.0553 13.6414286,0.1659 L0.173571429,13.0347 C-0.0578571429,13.2559 -0.0578571429,13.6136 0.173571429,13.8348 C0.289285714,13.9454 0.440714286,14.0007 0.592142857,14.0007 C0.743571429,14.0007 0.895,13.9454 1.01071429,13.8348 L14.4785714,0.9653 C14.71,0.7448 14.71,0.3864 14.4785714,0.1652 L14.4785714,0.1659 Z" id="Path" fill="#FFFFFF"></path>
                <path d="M14.4785714,13.0347 L1.01,0.1659 C0.779285714,-0.0553 0.404285714,-0.0553 0.173571429,0.1659 C-0.0571428571,0.3871 -0.0578571429,0.7448 0.173571429,0.966 L13.6421429,13.8348 C13.7578571,13.9454 13.9092857,14.0007 14.0607143,14.0007 C14.2121429,14.0007 14.3635714,13.9454 14.4792857,13.8348 C14.7107143,13.6136 14.7107143,13.2559 14.4792857,13.0347 L14.4785714,13.0347 Z" id="Path" fill="#FFFFFF"></path>
            </g>
        </g>
    </g>
</svg>