<svg width="120" height="30" viewBox="0 0 120 30" version="1.1" xmlns="http://www.w3.org/2000/svg" xmlns:xlink="http://www.w3.org/1999/xlink">
    <title>insta</title>
    <g id="symbols" stroke="none" stroke-width="1" fill="none" fill-rule="evenodd">
        <g id="Mobile-footer--opened" transform="translate(-60.000000, -483.000000)" fill="none">
            <g id="insta" transform="translate(60.000000, 483.000000)" fill="none">
                <g id="Group-21" transform="translate(10.000000, 5.000000)" fill-rule="nonzero" fill="none">
                    <g id="Group-11" transform="translate(0.000000, 2.000000)" fill="none">
                        <path d="M4.81288072,1.60427529 L12.0322018,1.60427529 C13.8042556,1.60427529 15.240789,3.04079231 15.240789,4.81282586 L15.240789,12.0320647 C15.240789,13.8040982 13.8042556,15.2406152 12.0322018,15.2406152 L4.81288072,15.2406152 C3.04082697,15.2406152 1.60429357,13.8040982 1.60429357,12.0320647 L1.60429357,4.81282586 C1.60429357,3.04079231 3.04082697,1.60427529 4.81288072,1.60427529 Z" id="Instagram_Icon-path" stroke="#FFFFFF" fill="#FFFFFF"></path>
                        <path d="M8.48671301,5.6149635 C9.21457047,5.61453786 9.91276246,5.9033765 10.4275859,6.4178932 C10.9424094,6.9324099 11.2316594,7.63042496 11.2316593,8.35827424 C11.1875118,9.91828067 9.93209065,11.1719268 8.37200602,11.2138843 C7.64422229,11.21431 6.94611268,10.9254458 6.43141657,10.410906 C5.91672045,9.89636621 5.62764887,9.19834904 5.62786186,8.47057351 C5.67238719,6.91103996 6.92711266,5.657737 8.48671301,5.6149635 Z" id="Instagram_Icon-path" fill="#FFB9BE"></path>
                        <path d="M12.8343486,3.20855057 C13.277362,3.20855057 13.6364954,3.56767983 13.6364954,4.01068822 C13.6364954,4.4536966 13.277362,4.81282586 12.8343486,4.81282586 C12.3913352,4.81282586 12.0322018,4.4536966 12.0322018,4.01068822 C12.0322018,3.56767983 12.3913352,3.20855057 12.8343486,3.20855057 Z" id="Instagram_Icon-path" fill="#FFB9BE"></path>
                    </g>
                    <text id="Instagram" fill="#FFFFFF" font-family="Lato-Regular, Lato" font-size="12" font-weight="normal" line-spacing="20" letter-spacing="0.8">
                        <tspan x="22" y="15" fill="#FFFFFF">INSTAGRAM</tspan>
                    </text>
                </g>
                <rect id="Rectangle" stroke="#FFFFFF" x="0.5" y="0.5" width="119" height="29" rx="3" fill="none"></rect>
            </g>
        </g>
    </g>
</svg>