<svg width="31" height="38" viewBox="0 0 31 38" version="1.1" xmlns="http://www.w3.org/2000/svg" xmlns:xlink="http://www.w3.org/1999/xlink" class="icon icon-hamburger">
    <title>shop</title>
    <g id="shop" stroke="none" stroke-width="1" fill="none" fill-rule="evenodd">
        <path d="M7.472,37.128 C7.824,37.128 8.13066667,37.064 8.392,36.936 C8.65333333,36.808 8.856,36.6253333 9,36.388 C9.144,36.1506667 9.216,35.8746667 9.216,35.56 C9.216,35.2933333 9.15866667,35.068 9.044,34.884 C8.92933333,34.7 8.78266667,34.5413333 8.604,34.408 C8.42533333,34.2746667 8.24266667,34.152 8.056,34.04 C7.85866667,33.9173333 7.67466667,33.7973333 7.504,33.68 C7.33333333,33.5626667 7.196,33.4386667 7.092,33.308 C6.988,33.1773333 6.936,33.032 6.936,32.872 C6.936,32.648 6.98,32.4693333 7.068,32.336 C7.156,32.2026667 7.26933333,32.1066667 7.408,32.048 C7.54666667,31.9893333 7.696,31.96 7.856,31.96 C8.08533333,31.96 8.27466667,32.0346667 8.424,32.184 C8.57333333,32.3333333 8.704,32.5493333 8.816,32.832 C8.82666667,32.864 8.85466667,32.8906667 8.9,32.912 C8.94533333,32.9333333 8.992,32.944 9.04,32.944 C9.12,32.944 9.16,32.9146667 9.16,32.856 C9.16,32.728 9.14133333,32.592 9.104,32.448 C9.06666667,32.304 9.032,32.176 9,32.064 C8.98933333,32.0213333 8.96933333,31.9813333 8.94,31.944 C8.91066667,31.9066667 8.87466667,31.88 8.832,31.864 C8.74666667,31.8266667 8.63333333,31.788 8.492,31.748 C8.35066667,31.708 8.184,31.688 7.992,31.688 C7.61866667,31.688 7.308,31.7533333 7.06,31.884 C6.812,32.0146667 6.62666667,32.1893333 6.504,32.408 C6.38133333,32.6266667 6.32,32.872 6.32,33.144 C6.32,33.4 6.38666667,33.6173333 6.52,33.796 C6.65333333,33.9746667 6.82133333,34.132 7.024,34.268 C7.22666667,34.404 7.432,34.5386667 7.64,34.672 C7.832,34.7893333 7.99466667,34.8986667 8.128,35 C8.26133333,35.1013333 8.364,35.22 8.436,35.356 C8.508,35.492 8.544,35.6693333 8.544,35.888 C8.544,36.0853333 8.50266667,36.2573333 8.42,36.404 C8.33733333,36.5506667 8.224,36.664 8.08,36.744 C7.936,36.824 7.77066667,36.864 7.584,36.864 C7.35466667,36.864 7.13466667,36.776 6.924,36.6 C6.71333333,36.424 6.55466667,36.1306667 6.448,35.72 C6.44266667,35.688 6.42666667,35.6653333 6.4,35.652 C6.37333333,35.6386667 6.34666667,35.632 6.32,35.632 C6.27733333,35.632 6.24,35.6413333 6.208,35.66 C6.176,35.6786667 6.16,35.7066667 6.16,35.744 C6.17066667,35.856 6.18,35.9973333 6.188,36.168 C6.196,36.3386667 6.21333333,36.4773333 6.24,36.584 C6.25066667,36.616 6.26533333,36.6453333 6.284,36.672 C6.30266667,36.6986667 6.32266667,36.7226667 6.344,36.744 C6.49333333,36.8666667 6.66266667,36.9613333 6.852,37.028 C7.04133333,37.0946667 7.248,37.128 7.472,37.128 Z M15.388,37.04 C15.4573333,37.04 15.5133333,37.0306667 15.556,37.012 C15.5986667,36.9933333 15.62,36.968 15.62,36.936 C15.62,36.8826667 15.5346667,36.84 15.364,36.808 C15.1666667,36.7706667 15.0426667,36.7093333 14.992,36.624 C14.9413333,36.5386667 14.916,36.3973333 14.916,36.2 L14.916,36.2 L14.916,32.584 C14.916,32.4293333 14.9373333,32.3066667 14.98,32.216 C15.0226667,32.1253333 15.1426667,32.0613333 15.34,32.024 C15.516,31.992 15.604,31.944 15.604,31.88 C15.604,31.848 15.584,31.8226667 15.544,31.804 C15.504,31.7853333 15.4466667,31.776 15.372,31.776 C15.228,31.776 15.1213333,31.7786667 15.052,31.784 C14.9826667,31.7893333 14.9213333,31.7933333 14.868,31.796 C14.8146667,31.7986667 14.74,31.8 14.644,31.8 L14.532,31.7995556 C14.4608889,31.798963 14.3968889,31.7977778 14.34,31.796 C14.2546667,31.7933333 14.1653333,31.7893333 14.072,31.784 C13.9786667,31.7786667 13.86,31.776 13.716,31.776 C13.5613333,31.776 13.484,31.8106667 13.484,31.88 C13.484,31.9173333 13.5053333,31.9466667 13.548,31.968 C13.5906667,31.9893333 13.6573333,32.008 13.748,32.024 C13.9506667,32.0613333 14.0893333,32.128 14.164,32.224 C14.2386667,32.32 14.276,32.44 14.276,32.584 L14.276,32.584 L14.276,34.144 C14.276,34.208 14.2573333,34.24 14.22,34.24 L14.22,34.24 L11.252,34.24 C11.2306667,34.24 11.2066667,34.236 11.18,34.228 C11.1533333,34.22 11.14,34.2 11.14,34.168 L11.14,34.168 L11.14,32.592 C11.14,32.4373333 11.1813333,32.3133333 11.264,32.22 C11.3466667,32.1266667 11.4866667,32.0613333 11.684,32.024 C11.7746667,32.008 11.8413333,31.9893333 11.884,31.968 C11.9266667,31.9466667 11.948,31.9173333 11.948,31.88 C11.948,31.8106667 11.8706667,31.776 11.716,31.776 C11.572,31.776 11.4586667,31.7786667 11.376,31.784 C11.2933333,31.7893333 11.216,31.7933333 11.144,31.796 C11.072,31.7986667 10.98,31.8 10.868,31.8 L10.7675556,31.7995556 C10.7047407,31.798963 10.6502222,31.7977778 10.604,31.796 C10.5346667,31.7933333 10.46,31.7893333 10.38,31.784 C10.3,31.7786667 10.188,31.776 10.044,31.776 C9.964,31.776 9.90533333,31.7853333 9.868,31.804 C9.83066667,31.8226667 9.812,31.848 9.812,31.88 C9.812,31.944 9.9,31.992 10.076,32.024 C10.2786667,32.0613333 10.4,32.1186667 10.44,32.196 C10.48,32.2733333 10.5,32.4053333 10.5,32.592 L10.5,32.592 L10.5,36.208 C10.5,36.4 10.4693333,36.5386667 10.408,36.624 C10.3466667,36.7093333 10.2146667,36.7706667 10.012,36.808 C9.84133333,36.84 9.756,36.8826667 9.756,36.936 C9.756,36.968 9.77733333,36.9933333 9.82,37.012 C9.86266667,37.0306667 9.91866667,37.04 9.988,37.04 C10.132,37.04 10.248,37.036 10.336,37.028 C10.424,37.02 10.5066667,37.0133333 10.584,37.008 C10.6613333,37.0026667 10.756,37 10.868,37 L10.9844444,37.0008889 C11.0579259,37.0020741 11.1231111,37.0044444 11.18,37.008 C11.2653333,37.0133333 11.3546667,37.02 11.448,37.028 C11.5413333,37.036 11.66,37.04 11.804,37.04 C11.8733333,37.04 11.9293333,37.0306667 11.972,37.012 C12.0146667,36.9933333 12.036,36.968 12.036,36.936 C12.036,36.8986667 12.016,36.872 11.976,36.856 C11.936,36.84 11.8706667,36.824 11.78,36.808 C11.5986667,36.776 11.4466667,36.7 11.324,36.58 C11.2013333,36.46 11.14,36.3173333 11.14,36.152 L11.14,36.152 L11.14,34.632 C11.14,34.5733333 11.1533333,34.544 11.18,34.544 L11.18,34.544 L14.236,34.544 C14.2626667,34.544 14.276,34.5573333 14.276,34.584 L14.276,34.584 L14.276,36.224 C14.276,36.3946667 14.2266667,36.5266667 14.128,36.62 C14.0293333,36.7133333 13.8946667,36.776 13.724,36.808 C13.6333333,36.824 13.568,36.84 13.528,36.856 C13.488,36.872 13.468,36.8986667 13.468,36.936 C13.468,36.968 13.4893333,36.9933333 13.532,37.012 C13.5746667,37.0306667 13.6306667,37.04 13.7,37.04 C13.844,37.04 13.9586667,37.036 14.044,37.028 C14.1293333,37.02 14.208,37.0133333 14.28,37.008 C14.352,37.0026667 14.444,37 14.556,37 L14.6608889,37.0008889 C14.7260741,37.0020741 14.7817778,37.0044444 14.828,37.008 C14.8973333,37.0133333 14.972,37.02 15.052,37.028 C15.132,37.036 15.244,37.04 15.388,37.04 Z M18.856,37.112 C19.2986667,37.112 19.6906667,37.0346667 20.032,36.88 C20.3733333,36.7253333 20.6586667,36.5173333 20.888,36.256 C21.1173333,35.9946667 21.2906667,35.696 21.408,35.36 C21.5253333,35.024 21.584,34.6773333 21.584,34.32 C21.584,33.9253333 21.512,33.5666667 21.368,33.244 C21.224,32.9213333 21.0293333,32.644 20.784,32.412 C20.5386667,32.18 20.256,32.0013333 19.936,31.876 C19.616,31.7506667 19.28,31.688 18.928,31.688 C18.4853333,31.688 18.0933333,31.7653333 17.752,31.92 C17.4106667,32.0746667 17.1253333,32.2826667 16.896,32.544 C16.6666667,32.8053333 16.4933333,33.1026667 16.376,33.436 C16.2586667,33.7693333 16.2,34.1173333 16.2,34.48 C16.2,34.8746667 16.272,35.2333333 16.416,35.556 C16.56,35.8786667 16.7546667,36.156 17,36.388 C17.2453333,36.62 17.528,36.7986667 17.848,36.924 C18.168,37.0493333 18.504,37.112 18.856,37.112 Z M18.976,36.792 C18.64,36.792 18.3466667,36.7213333 18.096,36.58 C17.8453333,36.4386667 17.636,36.2426667 17.468,35.992 C17.3,35.7413333 17.1746667,35.4533333 17.092,35.128 C17.0093333,34.8026667 16.968,34.4533333 16.968,34.08 C16.968,33.664 17.0373333,33.3026667 17.176,32.996 C17.3146667,32.6893333 17.52,32.4506667 17.792,32.28 C18.064,32.1093333 18.4,32.024 18.8,32.024 C19.136,32.024 19.4293333,32.0933333 19.68,32.232 C19.9306667,32.3706667 20.14,32.564 20.308,32.812 C20.476,33.06 20.6026667,33.3466667 20.688,33.672 C20.7733333,33.9973333 20.816,34.344 20.816,34.712 C20.816,35.128 20.748,35.492 20.612,35.804 C20.476,36.116 20.272,36.3586667 20,36.532 C19.728,36.7053333 19.3866667,36.792 18.976,36.792 Z M24.092,37.04 C24.1613333,37.04 24.2173333,37.0333333 24.26,37.02 C24.3026667,37.0066667 24.324,36.984 24.324,36.952 C24.324,36.9146667 24.3026667,36.8853333 24.26,36.864 C24.2173333,36.8426667 24.1506667,36.824 24.06,36.808 C23.8626667,36.7706667 23.724,36.6933333 23.644,36.576 C23.564,36.4586667 23.524,36.304 23.524,36.112 L23.524,36.112 L23.524,32.296 C23.524,32.1733333 23.572,32.0866667 23.668,32.036 C23.764,31.9853333 23.8866667,31.96 24.036,31.96 C24.4253333,31.96 24.7453333,32.0626667 24.996,32.268 C25.2466667,32.4733333 25.372,32.7893333 25.372,33.216 C25.372,33.6853333 25.2906667,34.0533333 25.128,34.32 C24.9653333,34.5866667 24.724,34.72 24.404,34.72 C24.2973333,34.72 24.216,34.7173333 24.16,34.712 C24.104,34.7066667 24.0626667,34.704 24.036,34.704 C24.0093333,34.704 23.9813333,34.7173333 23.952,34.744 C23.9226667,34.7706667 23.908,34.7946667 23.908,34.816 C23.908,34.848 23.9386667,34.8813333 24,34.916 C24.0613333,34.9506667 24.1506667,34.968 24.268,34.968 C24.6786667,34.968 25.016,34.8853333 25.28,34.72 C25.544,34.5546667 25.74,34.3346667 25.868,34.06 C25.996,33.7853333 26.06,33.4853333 26.06,33.16 C26.06,32.712 25.8746667,32.3626667 25.504,32.112 C25.1333333,31.8613333 24.644,31.736 24.036,31.736 C23.9613333,31.736 23.876,31.74 23.78,31.748 C23.684,31.756 23.5813333,31.764 23.472,31.772 C23.3626667,31.78 23.2546667,31.784 23.148,31.784 C23.0413333,31.784 22.956,31.7826667 22.892,31.78 C22.828,31.7773333 22.76,31.776 22.688,31.776 L22.688,31.776 L22.364,31.776 C22.2946667,31.776 22.2386667,31.7826667 22.196,31.796 C22.1533333,31.8093333 22.132,31.832 22.132,31.864 C22.132,31.9013333 22.1533333,31.9333333 22.196,31.96 C22.2386667,31.9866667 22.3053333,32.008 22.396,32.024 C22.5986667,32.0613333 22.7306667,32.144 22.792,32.272 C22.8533333,32.4 22.884,32.584 22.884,32.824 L22.884,32.824 L22.884,36.2 C22.884,36.3973333 22.8373333,36.5386667 22.744,36.624 C22.6506667,36.7093333 22.5026667,36.7706667 22.3,36.808 C22.124,36.84 22.036,36.888 22.036,36.952 C22.036,36.984 22.0573333,37.0066667 22.1,37.02 C22.1426667,37.0333333 22.1986667,37.04 22.268,37.04 C22.412,37.04 22.536,37.0346667 22.64,37.024 C22.744,37.0133333 22.848,37.004 22.952,36.996 C23.056,36.988 23.1746667,36.984 23.308,36.984 C23.4093333,36.984 23.4906667,36.988 23.552,36.996 C23.6133333,37.004 23.6826667,37.0133333 23.76,37.024 C23.8373333,37.0346667 23.948,37.04 24.092,37.04 Z" id="SHOP" fill="#333333" fill-rule="nonzero"></path>
        <g id="menu-copy" transform="translate(4.800000, 4.000000)" stroke="#000000" stroke-linejoin="round" stroke-width="2px" fill="none">
            <line x1="0" y1="8" x2="22" y2="8" id="Path" stroke="#000000" fill="none" stroke-width="2px"></line>
            <line x1="0" y1="1" x2="22" y2="1" id="Path" stroke="#000000" fill="none" stroke-width="2px"></line>
            <line x1="0" y1="15" x2="22" y2="15" id="Path" stroke="#000000" fill="none" stroke-width="2px"></line>
        </g>
    </g>
</svg>