<svg width="41" height="25" viewBox="0 0 41 25" version="1.1" xmlns="http://www.w3.org/2000/svg" xmlns:xlink="http://www.w3.org/1999/xlink">
    <title>cash-on-delivery</title>
    <g id="symbols" stroke="none" stroke-width="1" fill="none" fill-rule="evenodd">
        <g id="Group-2-Copy-2" transform="translate(-138.000000, 0.000000)" stroke="#2E2E2E" stroke-width="0.5px" fill="none">
            <g id="cash-on-delivery" transform="translate(138.000000, 0.000000)" stroke="#2E2E2E" fill="none" stroke-width="0.5px">
                <path d="M14.8,7.6 C14.8,11.576 7.737,21.471 7.6,21.471 C7.6,21.471 0.4,11.576 0.4,7.6 C0.4,3.624 3.624,0.4 7.6,0.4 C11.576,0.4 14.8,3.624 14.8,7.6 Z" id="Stroke-1" stroke="#2E2E2E" fill="none" stroke-width="0.5px"></path>
                <path d="M10.2717,7.2679 C10.2717,8.7939 9.0347,10.0299 7.5097,10.0299 C5.9837,10.0299 4.7467,8.7939 4.7467,7.2679 C4.7467,5.7419 5.9837,4.5059 7.5097,4.5059 C9.0347,4.5059 10.2717,5.7419 10.2717,7.2679 Z" id="Stroke-3" stroke="#2E2E2E" fill="none" stroke-width="0.5px"></path>
                <path d="M12.1736,22.634 C12.1736,23.609 10.1466,24.4 7.6456,24.4 C5.1446,24.4 3.1166,23.609 3.1166,22.634 C3.1166,21.659 5.1446,20.868 7.6456,20.868 C10.1466,20.868 12.1736,21.659 12.1736,22.634 Z" id="Stroke-5" stroke="#2E2E2E" fill="none" stroke-width="0.5px"></path>
                <polyline id="Stroke-7" points="12.7128 2.5311 40.6478 2.5311 40.6478 19.8261 8.6858 19.8261" stroke="#2E2E2E" fill="none" stroke-width="0.5px"></polyline>
                <line x1="10.1311" y1="17.8309" x2="15.3431" y2="17.8309" id="Stroke-9" stroke="#2E2E2E" fill="none" stroke-width="0.5px"></line>
                <line x1="12.2353" y1="14.3261" x2="15.3433" y2="14.3261" id="Stroke-11" stroke="#2E2E2E" fill="none" stroke-width="0.5px"></line>
                <line x1="13.8105" y1="11.1787" x2="15.3435" y2="11.1787" id="Stroke-13" stroke="#2E2E2E" fill="none" stroke-width="0.5px"></line>
                <path d="M28.7563,11.0868 C28.7563,13.3948 26.8853,15.2658 24.5773,15.2658 C22.2703,15.2658 20.3993,13.3948 20.3993,11.0868 C20.3993,8.7788 22.2703,6.9078 24.5773,6.9078 C26.8853,6.9078 28.7563,8.7788 28.7563,11.0868 Z" id="Stroke-15" stroke="#2E2E2E" fill="none" stroke-width="0.5px"></path>
                <polyline id="Stroke-17" points="34.5329 4.5057 37.9289 4.5057 37.9289 8.2337" stroke="#2E2E2E" fill="none" stroke-width="0.5px"></polyline>
                <polyline id="Stroke-19" points="34.5329 17.7509 37.9289 17.7509 37.9289 14.0229" stroke="#2E2E2E" fill="none" stroke-width="0.5px"></polyline>
            </g>
        </g>
    </g>
</svg>