<svg width="11" height="12" viewBox="0 0 11 12" version="1.1" xmlns="http://www.w3.org/2000/svg" xmlns:xlink="http://www.w3.org/1999/xlink">
    <title>cross-search-bar</title>
    <g id="Mobile---Section" stroke="none" stroke-width="1" fill="none" fill-rule="evenodd">
        <g id="Search-bar" transform="translate(-344.000000, -136.000000)" fill="#8E8E8E" fill-rule="nonzero">
            <g id="cancel" transform="translate(344.000000, 136.500000)" fill="#8E8E8E">
                <path d="M6.10309429,5.49481922 L10.8696591,0.72846499 C11.0328124,0.559933085 11.0306346,0.291698897 10.8647664,0.12583806 C10.6988983,-0.0400227765 10.4306522,-0.0422004567 10.2621129,0.120945587 L5.49554805,4.88729982 L0.728497177,0.120945587 C0.559957826,-0.0422004567 0.291711786,-0.0400227765 0.125843621,0.12583806 C-0.0400245449,0.291698897 -0.0422023213,0.559933085 0.120950931,0.72846499 L4.88751576,5.49481922 L0.120950931,10.2616595 C-0.0422023213,10.4301914 -0.0400245449,10.6984256 0.125843621,10.8642864 C0.291711786,11.0301472 0.559957826,11.0323249 0.728497177,10.8691789 L5.49506201,6.10282464 L10.2616268,10.8691789 C10.3695488,10.9806586 10.5291958,11.0252916 10.6792882,10.9859456 C10.8293807,10.9465996 10.9465973,10.8293882 10.985945,10.6793024 C11.0252927,10.5292166 10.9806578,10.3695766 10.8691731,10.2616595 L6.10309429,5.49481922 Z" id="Path_93" fill="#8E8E8E"></path>
            </g>
        </g>
    </g>
</svg>