<svg width="19" height="20" viewBox="0 0 19 20" version="1.1" xmlns="http://www.w3.org/2000/svg" xmlns:xlink="http://www.w3.org/1999/xlink" class="icon icon-search-grey">
    <title>search-bar</title>
    <g id="Mobile---Section" stroke="none" stroke-width="1" fill="none" fill-rule="evenodd">
        <g id="Search-bar" transform="translate(-20.000000, -132.000000)" stroke="#8E8E8E" fill="none">
            <g id="Group-10" transform="translate(21.000000, 133.600000)" stroke="#8E8E8E" fill="none">
                <g id="search-bar" transform="translate(0.000000, 0.500000)" stroke="#8E8E8E" fill="none">
                    <path d="M16.7472775,15.7677847 L12.2085215,11.4222919 M13.8190495,7.0724067 C13.8201771,8.66840126 13.2487234,10.2118457 12.2085215,11.4222919 C10.9301006,12.919409 9.05939143,13.7805079 7.09070813,13.7780594 C5.30973571,13.7805784 3.60070412,13.0755113 2.3395817,11.8179584 C1.07845929,10.5604054 0.368550918,8.85337912 0.366028708,7.0724067 C0.36835693,5.29130734 1.07817971,3.58409302 2.33932317,2.3263818 C3.60046663,1.06867058 5.30960905,0.363503006 7.09070813,0.366021946 C8.87187471,0.363502921 10.5810925,1.06864717 11.8423522,2.3263374 C13.1036119,3.58402763 13.8135974,5.29124012 13.8161196,7.0724067 L13.8190495,7.0724067 Z" id="Path_6497" stroke="#8E8E8E" fill="none"></path>
                </g>
            </g>
        </g>
    </g>
</svg>