<svg width="32" height="38" viewBox="0 0 32 38" version="1.1" xmlns="http://www.w3.org/2000/svg" xmlns:xlink="http://www.w3.org/1999/xlink" class="modal__toggle-open icon icon-search">
    <title>search</title>
    <g id="search" stroke="none" stroke-width="1" fill="none" fill-rule="evenodd">
        <g id="Group-3-Copy" transform="translate(0.000000, 31.000000)" fill="#333333" fill-rule="nonzero">
            <path d="M2.116,6.128 C2.468,6.128 2.77466667,6.064 3.036,5.936 C3.29733333,5.808 3.5,5.62533333 3.644,5.388 C3.788,5.15066667 3.86,4.87466667 3.86,4.56 C3.86,4.29333333 3.80266667,4.068 3.688,3.884 C3.57333333,3.7 3.42666667,3.54133333 3.248,3.408 C3.06933333,3.27466667 2.88666667,3.152 2.7,3.04 C2.50266667,2.91733333 2.31866667,2.79733333 2.148,2.68 C1.97733333,2.56266667 1.84,2.43866667 1.736,2.308 C1.632,2.17733333 1.58,2.032 1.58,1.872 C1.58,1.648 1.624,1.46933333 1.712,1.336 C1.8,1.20266667 1.91333333,1.10666667 2.052,1.048 C2.19066667,0.989333333 2.34,0.96 2.5,0.96 C2.72933333,0.96 2.91866667,1.03466667 3.068,1.184 C3.21733333,1.33333333 3.348,1.54933333 3.46,1.832 C3.47066667,1.864 3.49866667,1.89066667 3.544,1.912 C3.58933333,1.93333333 3.636,1.944 3.684,1.944 C3.764,1.944 3.804,1.91466667 3.804,1.856 C3.804,1.728 3.78533333,1.592 3.748,1.448 C3.71066667,1.304 3.676,1.176 3.644,1.064 C3.63333333,1.02133333 3.61333333,0.981333333 3.584,0.944 C3.55466667,0.906666667 3.51866667,0.88 3.476,0.864 C3.39066667,0.826666667 3.27733333,0.788 3.136,0.748 C2.99466667,0.708 2.828,0.688 2.636,0.688 C2.26266667,0.688 1.952,0.753333333 1.704,0.884 C1.456,1.01466667 1.27066667,1.18933333 1.148,1.408 C1.02533333,1.62666667 0.964,1.872 0.964,2.144 C0.964,2.4 1.03066667,2.61733333 1.164,2.796 C1.29733333,2.97466667 1.46533333,3.132 1.668,3.268 C1.87066667,3.404 2.076,3.53866667 2.284,3.672 C2.476,3.78933333 2.63866667,3.89866667 2.772,4 C2.90533333,4.10133333 3.008,4.22 3.08,4.356 C3.152,4.492 3.188,4.66933333 3.188,4.888 C3.188,5.08533333 3.14666667,5.25733333 3.064,5.404 C2.98133333,5.55066667 2.868,5.664 2.724,5.744 C2.58,5.824 2.41466667,5.864 2.228,5.864 C1.99866667,5.864 1.77866667,5.776 1.568,5.6 C1.35733333,5.424 1.19866667,5.13066667 1.092,4.72 C1.08666667,4.688 1.07066667,4.66533333 1.044,4.652 C1.01733333,4.63866667 0.990666667,4.632 0.964,4.632 C0.921333333,4.632 0.884,4.64133333 0.852,4.66 C0.82,4.67866667 0.804,4.70666667 0.804,4.744 C0.814666667,4.856 0.824,4.99733333 0.832,5.168 C0.84,5.33866667 0.857333333,5.47733333 0.884,5.584 C0.894666667,5.616 0.909333333,5.64533333 0.928,5.672 C0.946666667,5.69866667 0.966666667,5.72266667 0.988,5.744 C1.13733333,5.86666667 1.30666667,5.96133333 1.496,6.028 C1.68533333,6.09466667 1.892,6.128 2.116,6.128 Z M8.056,6.04 C8.088,6.04 8.11066667,6.02666667 8.124,6 C8.13733333,5.97333333 8.152,5.94133333 8.168,5.904 C8.2,5.82933333 8.236,5.728 8.276,5.6 C8.316,5.472 8.34933333,5.348 8.376,5.228 C8.40266667,5.108 8.416,5.024 8.416,4.976 C8.416,4.944 8.408,4.91866667 8.392,4.9 C8.376,4.88133333 8.35466667,4.86933333 8.328,4.864 C8.30133333,4.85866667 8.27733333,4.86666667 8.256,4.888 C8.23466667,4.90933333 8.216,4.936 8.2,4.968 C8.11466667,5.128 8.03866667,5.256 7.972,5.352 C7.90533333,5.448 7.82933333,5.52533333 7.744,5.584 C7.65866667,5.63733333 7.55866667,5.67333333 7.444,5.692 C7.32933333,5.71066667 7.18666667,5.72 7.016,5.72 L7.016,5.72 L6.424,5.72 C6.24266667,5.72 6.10933333,5.68133333 6.024,5.604 C5.93866667,5.52666667 5.896,5.38666667 5.896,5.184 L5.896,5.184 L5.896,3.648 C5.896,3.55733333 5.91866667,3.5 5.964,3.476 C6.00933333,3.452 6.07733333,3.44 6.168,3.44 L6.168,3.44 L6.912,3.44 C7.01866667,3.44 7.09866667,3.46933333 7.152,3.528 C7.20533333,3.58666667 7.248,3.67733333 7.28,3.8 C7.32266667,3.97066667 7.384,4.056 7.464,4.056 C7.496,4.056 7.516,4.04266667 7.524,4.016 C7.532,3.98933333 7.536,3.95733333 7.536,3.92 C7.536,3.89866667 7.53466667,3.848 7.532,3.768 C7.52933333,3.688 7.52666667,3.604 7.524,3.516 C7.52133333,3.428 7.52,3.35733333 7.52,3.304 L7.52088889,3.25511111 C7.52207407,3.21837037 7.52444444,3.17333333 7.528,3.12 C7.53333333,3.04 7.53733333,2.96266667 7.54,2.888 C7.54266667,2.81333333 7.544,2.76533333 7.544,2.744 C7.544,2.70133333 7.532,2.66933333 7.508,2.648 C7.484,2.62666667 7.46133333,2.616 7.44,2.616 C7.376,2.616 7.328,2.67466667 7.296,2.792 C7.25866667,2.94133333 7.21066667,3.044 7.152,3.1 C7.09333333,3.156 6.98666667,3.184 6.832,3.184 L6.832,3.184 L6.04,3.184 C6.00266667,3.184 5.96933333,3.16666667 5.94,3.132 C5.91066667,3.09733333 5.896,3.056 5.896,3.008 L5.896,3.008 L5.896,1.312 C5.896,1.23733333 5.93333333,1.176 6.008,1.128 C6.08266667,1.08 6.14133333,1.056 6.184,1.056 L6.184,1.056 L7.232,1.056 C7.33333333,1.056 7.42933333,1.07066667 7.52,1.1 C7.61066667,1.12933333 7.69333333,1.18666667 7.768,1.272 C7.80533333,1.30933333 7.83733333,1.36933333 7.864,1.452 C7.89066667,1.53466667 7.91733333,1.62133333 7.944,1.712 C7.95466667,1.73866667 7.96533333,1.75866667 7.976,1.772 C7.98666667,1.78533333 8.00533333,1.792 8.032,1.792 C8.05866667,1.792 8.084,1.784 8.108,1.768 C8.132,1.752 8.144,1.72 8.144,1.672 C8.144,1.56533333 8.13066667,1.43866667 8.104,1.292 C8.07733333,1.14533333 8.05066667,0.997333333 8.024,0.848 C8.01866667,0.821333333 8,0.802666667 7.968,0.792 C7.936,0.781333333 7.90666667,0.776 7.88,0.776 C7.85866667,0.776 7.78533333,0.777333333 7.66,0.78 C7.53466667,0.782666667 7.38133333,0.786666667 7.2,0.792 C7.03466667,0.792 6.85466667,0.793333333 6.66,0.796 C6.46533333,0.798666667 6.28,0.8 6.104,0.8 C5.91733333,0.8 5.756,0.798666667 5.62,0.796 C5.484,0.793333333 5.34533333,0.789333333 5.204,0.784 C5.06266667,0.778666667 4.89066667,0.776 4.688,0.776 C4.61866667,0.776 4.56266667,0.782666667 4.52,0.796 C4.47733333,0.809333333 4.456,0.832 4.456,0.864 C4.456,0.901333333 4.47733333,0.933333333 4.52,0.96 C4.56266667,0.986666667 4.62933333,1.008 4.72,1.024 C4.92266667,1.06133333 5.06266667,1.12 5.14,1.2 C5.21733333,1.28 5.256,1.416 5.256,1.608 L5.256,1.608 L5.256,5.208 C5.256,5.4 5.208,5.53866667 5.112,5.624 C5.016,5.70933333 4.86666667,5.77066667 4.664,5.808 C4.488,5.84 4.4,5.888 4.4,5.952 C4.4,5.984 4.42133333,6.00666667 4.464,6.02 C4.50666667,6.03333333 4.56266667,6.04 4.632,6.04 C4.776,6.04 4.89333333,6.036 4.984,6.028 C5.07466667,6.02 5.16266667,6.012 5.248,6.004 C5.33333333,5.996 5.43466667,5.992 5.552,5.992 C5.75466667,5.992 5.95066667,5.99466667 6.14,6 C6.32933333,6.00533333 6.52266667,6.01066667 6.72,6.016 C6.91733333,6.02133333 7.12533333,6.02666667 7.344,6.032 C7.56266667,6.03733333 7.8,6.04 8.056,6.04 Z M13.86,6.04 C13.9293333,6.04 13.9853333,6.03466667 14.028,6.024 C14.0706667,6.01333333 14.092,5.992 14.092,5.96 C14.092,5.92266667 14.0706667,5.88666667 14.028,5.852 C13.9853333,5.81733333 13.9186667,5.792 13.828,5.776 C13.7213333,5.75466667 13.6213333,5.72266667 13.528,5.68 C13.4346667,5.63733333 13.3453333,5.56266667 13.26,5.456 C13.1746667,5.34933333 13.0946667,5.18933333 13.02,4.976 C12.956,4.784 12.8693333,4.532 12.76,4.22 C12.6506667,3.908 12.5306667,3.556 12.4,3.164 C12.2693333,2.772 12.1346667,2.36533333 11.996,1.944 C11.8573333,1.52266667 11.724,1.10933333 11.596,0.704 C11.5853333,0.672 11.576,0.64 11.568,0.608 C11.56,0.576 11.5506667,0.549333333 11.54,0.528 C11.5346667,0.517333333 11.528,0.512 11.52,0.512 C11.512,0.512 11.5053333,0.514666667 11.5,0.52 C11.484,0.541333333 11.4666667,0.584 11.448,0.648 C11.4293333,0.712 11.396,0.76 11.348,0.792 C11.3,0.824 11.252,0.848 11.204,0.864 L11.204,0.864 L11.06,0.912 C11.0546667,0.997333333 11.0413333,1.07733333 11.02,1.152 C10.9986667,1.22666667 10.9746667,1.30133333 10.948,1.376 C10.8146667,1.744 10.688,2.084 10.568,2.396 C10.448,2.708 10.332,3.008 10.22,3.296 C10.108,3.584 9.98933333,3.87733333 9.864,4.176 C9.73866667,4.47466667 9.60133333,4.79466667 9.452,5.136 C9.36666667,5.33333333 9.26533333,5.47466667 9.148,5.56 C9.03066667,5.64533333 8.90266667,5.70933333 8.764,5.752 C8.67866667,5.77866667 8.61333333,5.80666667 8.568,5.836 C8.52266667,5.86533333 8.5,5.89866667 8.5,5.936 C8.5,5.968 8.52133333,5.99333333 8.564,6.012 C8.60666667,6.03066667 8.66266667,6.04 8.732,6.04 C8.86533333,6.04 9.01466667,6.032 9.18,6.016 C9.34533333,6 9.516,5.992 9.692,5.992 C9.84133333,5.992 9.98266667,5.99466667 10.116,6 C10.2493333,6.00533333 10.3506667,6.008 10.42,6.008 C10.4893333,6.008 10.5453333,6.00133333 10.588,5.988 C10.6306667,5.97466667 10.652,5.952 10.652,5.92 C10.652,5.86133333 10.564,5.808 10.388,5.76 C10.26,5.728 10.1506667,5.67333333 10.06,5.596 C9.96933333,5.51866667 9.924,5.42133333 9.924,5.304 C9.924,5.27733333 9.93733333,5.21333333 9.964,5.112 C9.99066667,5.01066667 10.0226667,4.896 10.06,4.768 C10.0973333,4.64 10.1346667,4.51866667 10.172,4.404 C10.2093333,4.28933333 10.236,4.20533333 10.252,4.152 C10.2733333,4.09333333 10.296,4.05466667 10.32,4.036 C10.344,4.01733333 10.3666667,4.008 10.388,4.008 L10.388,4.008 L11.9,4.008 C11.9746667,4.008 12.0266667,4.012 12.056,4.02 C12.0853333,4.028 12.1053333,4.05333333 12.116,4.096 C12.1586667,4.22933333 12.204,4.38266667 12.252,4.556 C12.3,4.72933333 12.3413333,4.892 12.376,5.044 C12.4106667,5.196 12.428,5.312 12.428,5.392 C12.428,5.47733333 12.3906667,5.552 12.316,5.616 C12.2413333,5.68 12.116,5.72533333 11.94,5.752 C11.8706667,5.76266667 11.8093333,5.78133333 11.756,5.808 C11.7026667,5.83466667 11.676,5.86666667 11.676,5.904 C11.676,5.936 11.6973333,5.96 11.74,5.976 C11.7826667,5.992 11.8386667,6 11.908,6 C11.972,6 12.0493333,5.99866667 12.14,5.996 C12.2306667,5.99333333 12.3293333,5.992 12.436,5.992 L12.436,5.992 L12.748,5.992 C12.8706667,5.992 13.004,5.996 13.148,6.004 C13.292,6.012 13.428,6.02 13.556,6.028 C13.684,6.036 13.7853333,6.04 13.86,6.04 Z M11.844,3.744 L10.5546667,3.74311111 C10.5244444,3.74192593 10.4995556,3.73955556 10.48,3.736 C10.4506667,3.73066667 10.436,3.71466667 10.436,3.688 C10.436,3.67733333 10.4413333,3.656 10.452,3.624 L10.452,3.624 L11.18,1.664 C11.212,1.57333333 11.2333333,1.528 11.244,1.528 C11.26,1.528 11.284,1.576 11.316,1.672 L11.316,1.672 L11.94,3.624 C11.9453333,3.64 11.9493333,3.65466667 11.952,3.668 C11.9546667,3.68133333 11.956,3.69333333 11.956,3.704 C11.956,3.73066667 11.9186667,3.744 11.844,3.744 L11.844,3.744 Z M19.048,6.168 C19.1173333,6.168 19.2026667,6.16133333 19.304,6.148 C19.4053333,6.13466667 19.496,6.108 19.576,6.068 C19.656,6.028 19.696,5.968 19.696,5.888 C19.696,5.82933333 19.656,5.8 19.576,5.8 C19.3893333,5.8 19.224,5.78666667 19.08,5.76 C18.936,5.73333333 18.7946667,5.65866667 18.656,5.536 C18.4053333,5.30666667 18.1893333,5.08533333 18.008,4.872 C17.8266667,4.65866667 17.66,4.44 17.508,4.216 C17.356,3.992 17.1973333,3.75466667 17.032,3.504 C17.016,3.47733333 17.0066667,3.45466667 17.004,3.436 C17.0013333,3.41733333 17.0106667,3.40533333 17.032,3.4 C17.1813333,3.32533333 17.328,3.22933333 17.472,3.112 C17.616,2.99466667 17.736,2.84933333 17.832,2.676 C17.928,2.50266667 17.976,2.296 17.976,2.056 C17.976,1.61866667 17.8226667,1.29066667 17.516,1.072 C17.2093333,0.853333333 16.7626667,0.744 16.176,0.744 C16.0213333,0.744 15.8946667,0.746666667 15.796,0.752 C15.6973333,0.757333333 15.608,0.764 15.528,0.772 C15.448,0.78 15.3573333,0.784 15.256,0.784 C15.1493333,0.784 15.064,0.782666667 15,0.78 C14.936,0.777333333 14.868,0.776 14.796,0.776 L14.796,0.776 L14.472,0.776 C14.4026667,0.776 14.3466667,0.782666667 14.304,0.796 C14.2613333,0.809333333 14.24,0.832 14.24,0.864 C14.24,0.901333333 14.2613333,0.934666667 14.304,0.964 C14.3466667,0.993333333 14.4133333,1.01333333 14.504,1.024 C14.6586667,1.04 14.7693333,1.06933333 14.836,1.112 C14.9026667,1.15466667 14.9453333,1.228 14.964,1.332 C14.9826667,1.436 14.992,1.58933333 14.992,1.792 L14.992,1.792 L14.992,5.2 C14.992,5.39733333 14.9453333,5.53866667 14.852,5.624 C14.7586667,5.70933333 14.6106667,5.77066667 14.408,5.808 C14.232,5.84 14.144,5.888 14.144,5.952 C14.144,5.984 14.1653333,6.00666667 14.208,6.02 C14.2506667,6.03333333 14.3066667,6.04 14.376,6.04 C14.52,6.04 14.644,6.03466667 14.748,6.024 C14.852,6.01333333 14.956,6.004 15.06,5.996 C15.164,5.988 15.2826667,5.984 15.416,5.984 C15.5173333,5.984 15.5986667,5.988 15.66,5.996 C15.7213333,6.004 15.7906667,6.01333333 15.868,6.024 C15.9453333,6.03466667 16.056,6.04 16.2,6.04 C16.2693333,6.04 16.3253333,6.03333333 16.368,6.02 C16.4106667,6.00666667 16.432,5.984 16.432,5.952 C16.432,5.91466667 16.4106667,5.88533333 16.368,5.864 C16.3253333,5.84266667 16.2586667,5.824 16.168,5.808 C15.9706667,5.77066667 15.832,5.68933333 15.752,5.564 C15.672,5.43866667 15.632,5.29066667 15.632,5.12 L15.632,5.12 L15.632,3.712 C15.632,3.664 15.6413333,3.624 15.66,3.592 C15.6786667,3.56 15.7093333,3.54666667 15.752,3.552 C15.8266667,3.55733333 15.9213333,3.572 16.036,3.596 C16.1506667,3.62 16.2666667,3.66133333 16.384,3.72 C16.5333333,3.79466667 16.648,3.89866667 16.728,4.032 C16.9146667,4.33066667 17.0733333,4.576 17.204,4.768 C17.3346667,4.96 17.4586667,5.12933333 17.576,5.276 L17.576,5.276 L17.944,5.736 C18.04,5.848 18.144,5.936 18.256,6 C18.368,6.064 18.4906667,6.108 18.624,6.132 C18.7573333,6.156 18.8986667,6.168 19.048,6.168 Z M16.056,3.368 C15.9226667,3.368 15.8186667,3.35466667 15.744,3.328 C15.6693333,3.30133333 15.632,3.22133333 15.632,3.088 C15.632,2.768 15.6333333,2.49466667 15.636,2.268 C15.6386667,2.04133333 15.6426667,1.86133333 15.648,1.728 C15.6586667,1.45066667 15.6906667,1.25733333 15.744,1.148 C15.7973333,1.03866667 15.9093333,0.984 16.08,0.984 C16.416,0.984 16.668,1.03866667 16.836,1.148 C17.004,1.25733333 17.116,1.40266667 17.172,1.584 C17.228,1.76533333 17.256,1.96533333 17.256,2.184 C17.256,2.38666667 17.2066667,2.57866667 17.108,2.76 C17.0093333,2.94133333 16.8706667,3.088 16.692,3.2 C16.5133333,3.312 16.3013333,3.368 16.056,3.368 Z M22.812,6.12 C23.0733333,6.12 23.3413333,6.10133333 23.616,6.064 C23.8906667,6.02666667 24.1266667,5.968 24.324,5.888 C24.4093333,5.86133333 24.464,5.83733333 24.488,5.816 C24.512,5.79466667 24.5426667,5.74666667 24.58,5.672 C24.612,5.592 24.6453333,5.5 24.68,5.396 C24.7146667,5.292 24.7426667,5.19333333 24.764,5.1 C24.7853333,5.00666667 24.796,4.93866667 24.796,4.896 C24.796,4.81066667 24.76,4.768 24.688,4.768 C24.616,4.768 24.5613333,4.80266667 24.524,4.872 C24.348,5.18666667 24.1346667,5.432 23.884,5.608 C23.6333333,5.784 23.316,5.872 22.932,5.872 C22.6013333,5.872 22.3013333,5.796 22.032,5.644 C21.7626667,5.492 21.5306667,5.28933333 21.336,5.036 C21.1413333,4.78266667 20.992,4.49866667 20.888,4.184 C20.784,3.86933333 20.732,3.54933333 20.732,3.224 C20.732,2.93066667 20.7853333,2.648 20.892,2.376 C20.9986667,2.104 21.1466667,1.86 21.336,1.644 C21.5253333,1.428 21.752,1.25733333 22.016,1.132 C22.28,1.00666667 22.5666667,0.944 22.876,0.944 C23.0946667,0.944 23.2986667,0.966666667 23.488,1.012 C23.6773333,1.05733333 23.8386667,1.12533333 23.972,1.216 C24.1106667,1.312 24.2146667,1.43333333 24.284,1.58 C24.3533333,1.72666667 24.4146667,1.90133333 24.468,2.104 C24.484,2.16266667 24.5146667,2.19733333 24.56,2.208 C24.6053333,2.21866667 24.648,2.212 24.688,2.188 C24.728,2.164 24.7453333,2.13333333 24.74,2.096 C24.7346667,1.888 24.724,1.71333333 24.708,1.572 C24.692,1.43066667 24.6786667,1.29866667 24.668,1.176 C24.6626667,1.10133333 24.6426667,1.04266667 24.608,1 C24.5733333,0.957333333 24.516,0.925333333 24.436,0.904 C24.2546667,0.856 24.096,0.817333333 23.96,0.788 C23.824,0.758666667 23.684,0.736 23.54,0.72 C23.396,0.704 23.22,0.696 23.012,0.696 C22.6013333,0.696 22.2106667,0.764 21.84,0.9 C21.4693333,1.036 21.14,1.22666667 20.852,1.472 C20.564,1.71733333 20.3373333,2.00533333 20.172,2.336 C20.0066667,2.66666667 19.924,3.02666667 19.924,3.416 C19.924,3.82133333 20.0026667,4.19066667 20.16,4.524 C20.3173333,4.85733333 20.532,5.14266667 20.804,5.38 C21.076,5.61733333 21.3853333,5.8 21.732,5.928 C22.0786667,6.056 22.4386667,6.12 22.812,6.12 Z M31.064,6.04 C31.1333333,6.04 31.1893333,6.03066667 31.232,6.012 C31.2746667,5.99333333 31.296,5.968 31.296,5.936 C31.296,5.88266667 31.2106667,5.84 31.04,5.808 C30.8426667,5.77066667 30.7186667,5.70933333 30.668,5.624 C30.6173333,5.53866667 30.592,5.39733333 30.592,5.2 L30.592,5.2 L30.592,1.584 C30.592,1.42933333 30.6133333,1.30666667 30.656,1.216 C30.6986667,1.12533333 30.8186667,1.06133333 31.016,1.024 C31.192,0.992 31.28,0.944 31.28,0.88 C31.28,0.848 31.26,0.822666667 31.22,0.804 C31.18,0.785333333 31.1226667,0.776 31.048,0.776 C30.904,0.776 30.7973333,0.778666667 30.728,0.784 C30.6586667,0.789333333 30.5973333,0.793333333 30.544,0.796 C30.4906667,0.798666667 30.416,0.8 30.32,0.8 L30.208,0.799555556 C30.1368889,0.798962963 30.0728889,0.797777778 30.016,0.796 C29.9306667,0.793333333 29.8413333,0.789333333 29.748,0.784 C29.6546667,0.778666667 29.536,0.776 29.392,0.776 C29.2373333,0.776 29.16,0.810666667 29.16,0.88 C29.16,0.917333333 29.1813333,0.946666667 29.224,0.968 C29.2666667,0.989333333 29.3333333,1.008 29.424,1.024 C29.6266667,1.06133333 29.7653333,1.128 29.84,1.224 C29.9146667,1.32 29.952,1.44 29.952,1.584 L29.952,1.584 L29.952,3.144 C29.952,3.208 29.9333333,3.24 29.896,3.24 L29.896,3.24 L26.928,3.24 C26.9066667,3.24 26.8826667,3.236 26.856,3.228 C26.8293333,3.22 26.816,3.2 26.816,3.168 L26.816,3.168 L26.816,1.592 C26.816,1.43733333 26.8573333,1.31333333 26.94,1.22 C27.0226667,1.12666667 27.1626667,1.06133333 27.36,1.024 C27.4506667,1.008 27.5173333,0.989333333 27.56,0.968 C27.6026667,0.946666667 27.624,0.917333333 27.624,0.88 C27.624,0.810666667 27.5466667,0.776 27.392,0.776 C27.248,0.776 27.1346667,0.778666667 27.052,0.784 C26.9693333,0.789333333 26.892,0.793333333 26.82,0.796 C26.748,0.798666667 26.656,0.8 26.544,0.8 L26.4435556,0.799555556 C26.3807407,0.798962963 26.3262222,0.797777778 26.28,0.796 C26.2106667,0.793333333 26.136,0.789333333 26.056,0.784 C25.976,0.778666667 25.864,0.776 25.72,0.776 C25.64,0.776 25.5813333,0.785333333 25.544,0.804 C25.5066667,0.822666667 25.488,0.848 25.488,0.88 C25.488,0.944 25.576,0.992 25.752,1.024 C25.9546667,1.06133333 26.076,1.11866667 26.116,1.196 C26.156,1.27333333 26.176,1.40533333 26.176,1.592 L26.176,1.592 L26.176,5.208 C26.176,5.4 26.1453333,5.53866667 26.084,5.624 C26.0226667,5.70933333 25.8906667,5.77066667 25.688,5.808 C25.5173333,5.84 25.432,5.88266667 25.432,5.936 C25.432,5.968 25.4533333,5.99333333 25.496,6.012 C25.5386667,6.03066667 25.5946667,6.04 25.664,6.04 C25.808,6.04 25.924,6.036 26.012,6.028 C26.1,6.02 26.1826667,6.01333333 26.26,6.008 C26.3373333,6.00266667 26.432,6 26.544,6 L26.6604444,6.00088889 C26.7339259,6.00207407 26.7991111,6.00444444 26.856,6.008 C26.9413333,6.01333333 27.0306667,6.02 27.124,6.028 C27.2173333,6.036 27.336,6.04 27.48,6.04 C27.5493333,6.04 27.6053333,6.03066667 27.648,6.012 C27.6906667,5.99333333 27.712,5.968 27.712,5.936 C27.712,5.89866667 27.692,5.872 27.652,5.856 C27.612,5.84 27.5466667,5.824 27.456,5.808 C27.2746667,5.776 27.1226667,5.7 27,5.58 C26.8773333,5.46 26.816,5.31733333 26.816,5.152 L26.816,5.152 L26.816,3.632 C26.816,3.57333333 26.8293333,3.544 26.856,3.544 L26.856,3.544 L29.912,3.544 C29.9386667,3.544 29.952,3.55733333 29.952,3.584 L29.952,3.584 L29.952,5.224 C29.952,5.39466667 29.9026667,5.52666667 29.804,5.62 C29.7053333,5.71333333 29.5706667,5.776 29.4,5.808 C29.3093333,5.824 29.244,5.84 29.204,5.856 C29.164,5.872 29.144,5.89866667 29.144,5.936 C29.144,5.968 29.1653333,5.99333333 29.208,6.012 C29.2506667,6.03066667 29.3066667,6.04 29.376,6.04 C29.52,6.04 29.6346667,6.036 29.72,6.028 C29.8053333,6.02 29.884,6.01333333 29.956,6.008 C30.028,6.00266667 30.12,6 30.232,6 L30.3368889,6.00088889 C30.4020741,6.00207407 30.4577778,6.00444444 30.504,6.008 C30.5733333,6.01333333 30.648,6.02 30.728,6.028 C30.808,6.036 30.92,6.04 31.064,6.04 Z" id="SEARCH" fill="#333333"></path>
        </g>
        <g id="search-(2)-copy" transform="translate(7.000000, 4.000000)" stroke="#000000" stroke-linecap="round" stroke-linejoin="round" stroke-width="1.3px" fill="none">
            <circle id="Oval" cx="7" cy="7" r="7" stroke="#000000" fill="none" stroke-width="1.3px"></circle>
            <line x1="16.5" y1="17.5" x2="12" y2="13" id="Path" stroke="#000000" fill="none" stroke-width="1.3px"></line>
        </g>
    </g>
</svg>