<svg id="icon-search" width="18" height="19" viewBox="0 0 18 19" version="1.1" xmlns="http://www.w3.org/2000/svg" xmlns:xlink="http://www.w3.org/1999/xlink" fill="none">
      <g id="Mobile---Section" stroke="none" stroke-width="1" fill="none" fill-rule="evenodd">
          <g id="Shop-Side-Menu" transform="translate(-329.000000, -9.000000)" fill="#FFFFFF" fill-rule="nonzero">
              <g id="search-white" transform="translate(329.000000, 9.000000)" fill="#FFFFFF">
                  <path d="M8.162875,6.75015599e-14 C3.67012984,6.75015599e-14 -9.59232693e-14,3.66519411 -9.59232693e-14,8.15189725 C-9.59232693e-14,12.6386004 3.67012984,16.2406015 8.0995969,16.2406015 C12.5923421,16.2406015 16.1991938,12.5754074 16.1991938,8.15189725 C16.2624719,3.66519411 12.5923421,6.75015599e-14 8.162875,6.75015599e-14 Z M8.162875,14.7239695 C4.49274515,14.7239695 1.51867442,11.7538984 1.51867442,8.15189725 C1.51867442,4.54989614 4.49274515,1.51663205 8.162875,1.51663205 C11.8330048,1.51663205 14.8070756,4.48670314 14.8070756,8.15189725 C14.8070756,11.8170914 11.7697267,14.7239695 8.162875,14.7239695 Z" id="search-lens-Shape" fill="#FFFFFF"></path>
                  <path d="M17.7876127,17.7673065 L13.8128785,13.7550962 C13.5206186,13.4600807 13.1114548,13.4600807 12.8191949,13.7550962 C12.526935,14.0501117 12.526935,14.4631333 12.8191949,14.7581488 L16.7939292,18.7703591 C16.9108331,18.8883653 17.086189,18.9473684 17.261545,18.9473684 C17.4369009,18.9473684 17.6122568,18.8883653 17.7291608,18.7703591 C18.0798726,18.4753437 18.0798726,18.0033189 17.7876127,17.7673065 Z" id="search-lens-Path" fill="#FFFFFF"></path>
              </g>
          </g>
      </g>
    </svg>